<svg width="96" height="96" viewBox="0 0 96 96" fill="none" xmlns="http://www.w3.org/2000/svg">
<path d="M48 0C74.5097 0 96 21.4903 96 48C96 74.5097 74.5097 96 48 96C21.4903 96 0 74.5097 0 48C0 21.4903 21.4903 0 48 0ZM48 4.5C37.8044 4.5 28.4289 8.00853 21.0127 13.8828C33.5453 8.6006 45.0153 9.88883 53.8076 16.1689C59.7895 20.4417 62.2675 27.2302 62.0615 33.8203C61.8566 40.3785 58.9961 47.0154 53.9404 51.2285C53.168 51.8722 52.062 51.9253 51.2314 51.3584C50.401 50.7915 50.0473 49.742 50.3652 48.7881C51.7333 44.6837 51.586 41.3807 50.6523 38.9033C49.7193 36.428 47.9386 34.6027 45.709 33.5264C41.2318 31.3651 34.813 32.202 30.1934 37.4814C25.8681 42.4246 23.7553 51.6606 26.9297 59.8115C30.0046 67.7067 38.2659 75.03 55.5938 75.752C56.7454 75.8 57.675 76.7108 57.7461 77.8613C57.8171 79.0117 57.007 80.0301 55.8701 80.2197C27.7306 84.9096 13.0622 68.9064 9.83691 57.6182C6.66177 46.5052 8.21465 33.6037 17.9092 23.9092C18.7879 23.0305 20.2121 23.0305 21.0908 23.9092C21.9695 24.7879 21.9695 26.2121 21.0908 27.0908C12.7854 35.3963 11.3383 46.4949 14.1631 56.3818C15.9599 62.6705 22.4768 71.5768 34.8496 75.0703C28.745 71.642 24.827 66.8125 22.7363 61.4443C18.9665 51.7642 21.3538 40.7505 26.8066 34.5186C32.687 27.7982 41.2682 26.385 47.666 29.4736C50.8737 31.0222 53.4994 33.6973 54.8633 37.3154C55.3406 38.5818 55.6561 39.943 55.7939 41.3867C56.8646 38.9933 57.4802 36.3458 57.5635 33.6797C57.7325 28.2699 55.7103 23.0583 51.1924 19.8311C41.6929 13.0457 27.7741 12.7187 11.8232 24.3193C11.6678 24.4324 11.5017 24.5198 11.3311 24.5879C7.00668 31.3468 4.5 39.3807 4.5 48C4.5 72.0244 23.9756 91.5 48 91.5C50.18 91.5 52.3221 91.3369 54.416 91.0273C54.6056 90.9233 54.8135 90.8447 55.0361 90.7979C68.1157 88.0442 78.5304 74.7578 81.6074 59.5537C84.1281 47.0987 81.6047 33.9386 71.9648 25.0039C73.442 30.3793 73.5397 36.7057 72.3291 42.6377C70.3661 52.2561 64.7666 61.7831 54.7119 65.1348C53.5331 65.5277 52.2583 64.8906 51.8652 63.7119C51.4723 62.5331 52.1094 61.2583 53.2881 60.8652C61.2331 58.2169 66.1339 50.4937 67.9209 41.7373C69.722 32.9115 68.1637 23.9808 64.292 19.4639C63.5853 18.6393 63.5684 17.4279 64.252 16.584C64.9354 15.7402 66.1238 15.5046 67.0771 16.0244C84.6783 25.6251 89.342 44.0197 86.0176 60.4463C84.634 67.2826 81.8349 73.9275 77.9141 79.5791C86.2804 71.6512 91.5 60.4357 91.5 48C91.5 23.9756 72.0244 4.5 48 4.5Z" fill="white"/>
</svg>
