<?xml version="1.0" encoding="UTF-8"?>
<!DOCTYPE svg PUBLIC "-//W3C//DTD SVG 1.1//EN" "http://www.w3.org/Graphics/SVG/1.1/DTD/svg11.dtd">
<!-- Creator: CorelDRAW 2019 (64-Bit) -->
<svg xmlns="http://www.w3.org/2000/svg" xml:space="preserve" width="141.277mm" height="25.839mm" version="1.1" shape-rendering="geometricPrecision" text-rendering="geometricPrecision" image-rendering="optimizeQuality" fill-rule="evenodd" clip-rule="evenodd"
viewBox="0 0 26042.38 4763.05"
 xmlns:xlink="http://www.w3.org/1999/xlink">
 <g id="Layer_x0020_1">
  <metadata id="CorelCorpID_0Corel-Layer"/>
  <g id="_2407896198640">
   <g>
    <path fill="white" d="M26042.38 3754.79l-578.24 0 -199.19 -555.46 -1088.8 0 -203.27 555.46 -544.01 0 1038.55 -2731.48 544.01 0 1030.95 2731.48zm-1700.55 -1008.13l760.81 0 -376.52 -1049.98 -384.28 1049.98z"/>
    <path fill="white" d="M22054.04 1008.11c213.04,0 396.95,36.76 551.66,110.31 157.24,73.55 278.92,176.28 365.15,308.15 86.23,131.87 129.39,295.45 129.39,490.72 0,195.29 -43.15,361.45 -129.39,498.39 -86.23,134.4 -207.91,238.38 -365.15,311.93 -12.15,5.57 -24.54,10.82 -37.03,15.95l660.92 1011.23 -585.89 0 -582 -920.72c-2.54,0 -5.07,0.09 -7.65,0.09l-471.68 0 0 920.63 -505.96 0 0 -2746.67 977.64 0zm-471.68 1361.89l505.96 0c142.01,0 261.22,-40.57 357.59,-121.74 96.37,-81.14 144.56,-197.81 144.56,-349.98 0,-142.01 -46.91,-251.08 -140.76,-327.16 -91.3,-76.09 -211.76,-114.12 -361.39,-114.12l-505.96 0 0 913z"/>
    <path fill="white" d="M20714.99 1023.32l0 1719.52c0,213.04 -43.12,399.44 -129.35,559.22 -86.21,159.78 -210.49,285.31 -372.8,376.62 -162.33,88.76 -357.61,133.15 -585.86,133.15 -230.79,0 -427.35,-44.39 -589.65,-133.15 -162.31,-91.3 -286.59,-216.83 -372.82,-376.62 -86.23,-159.78 -129.35,-346.18 -129.35,-559.22l0 -1719.52 505.96 0 0 1746.14c0,111.6 21.57,210.51 64.68,296.74 45.64,86.21 110.31,153.42 194.01,201.63 86.23,45.64 195.29,68.46 327.16,68.46 131.87,0 239.67,-22.82 323.36,-68.46 86.23,-48.2 150.9,-115.41 194.01,-201.63 43.12,-86.23 64.66,-185.15 64.66,-296.74l0 -1746.14 505.96 0z"/>
    <path fill="white" d="M18404.21 3754.79l-578.24 0 -199.17 -555.46 -1088.8 0 -203.29 555.46 -543.99 0 1038.55 -2731.48 544.01 0 1030.93 2731.48zm-1700.59 -1008.13l760.85 0 -376.56 -1049.98 -384.28 1049.98z"/>
    <polygon fill="white" points="13421.81,3754.77 12870.2,3754.77 13570.18,2720.02 12915.84,1730.91 13463.65,1730.91 13901.13,2427.09 14342.43,1730.91 14844.58,1730.91 14197.86,2739.02 14890.24,3754.77 14334.82,3754.77 13870.7,3058.59 "/>
    <polygon fill="white" points="12666.38,3283.04 12666.38,3754.77 10737.62,3754.77 10737.62,1023.32 12666.38,1023.32 12666.38,1495.05 11239.79,1495.05 11235.99,2153.19 12666.38,2153.19 12666.38,2624.9 11235.99,2624.9 11239.79,3283.04 "/>
    <path fill="white" d="M10425.58 3754.79l-490.79 0 0 -321.37c-13.99,30.07 -29.16,58.6 -45.59,85.51 -111.6,182.58 -294.25,273.85 -547.86,273.85 -182.6,0 -339.84,-44.35 -471.73,-133.11 -129.33,-91.3 -232.04,-216.89 -308.14,-376.65 -76.08,-162.31 -114.12,-342.37 -114.12,-540.16 0,-202.9 36.77,-382.98 110.32,-540.21 76.08,-159.78 180.06,-284.08 311.93,-372.84 134.42,-91.3 292.93,-136.94 475.53,-136.94 121.74,0 235.88,31.72 342.38,95.12 104.32,59.63 186.75,149.68 247.27,270.16l0 -1034.84 490.79 0 0 2731.48zm-981.48 -1639.65c-149.64,0 -271.42,52.02 -365.26,156 -91.25,101.44 -136.94,253.59 -136.94,456.47 0,187.67 45.64,334.75 136.94,441.28 93.85,106.51 215.62,159.8 365.26,159.8 96.32,0 178.75,-21.57 247.21,-64.68 71.02,-43.12 129.35,-107.78 175.01,-193.99 45.64,-86.23 68.46,-197.83 68.46,-334.79 0,-139.49 -21.55,-253.63 -64.66,-342.4 -40.57,-88.76 -97.64,-157.24 -171.19,-205.42 -73.55,-48.19 -158.51,-72.24 -254.83,-72.26z"/>
    <path fill="white" d="M8384.67 3754.79l-578.19 0 -199.19 -555.46 -1088.83 0 -203.29 555.46 -544.01 0 1038.57 -2731.48 543.99 0 1030.95 2731.48zm-1700.53 -1008.13l760.79 0 -376.52 -1049.98 -384.27 1049.98z"/>
   </g>
   <path fill="white" d="M2381.52 0c1315.27,0 2381.52,1066.25 2381.52,2381.52 0,1315.27 -1066.25,2381.52 -2381.52,2381.52 -1315.27,0 -2381.52,-1066.25 -2381.52,-2381.52 0,-1315.27 1066.25,-2381.52 2381.52,-2381.52zm0 223.27c-505.85,0 -971.02,174.07 -1338.98,465.54 621.82,-262.09 1190.9,-198.18 1627.13,113.4 296.78,212 419.73,548.82 409.52,875.8 -10.16,325.37 -152.1,654.67 -402.92,863.7 -38.34,31.93 -93.2,34.58 -134.42,6.45 -41.2,-28.13 -58.75,-80.2 -42.99,-127.54 67.89,-203.64 60.57,-367.53 14.25,-490.42 -46.29,-122.82 -134.64,-213.39 -245.26,-266.79 -222.12,-107.23 -540.6,-65.7 -769.8,196.24 -214.6,245.24 -319.44,703.48 -161.94,1107.89 152.56,391.73 562.44,755.08 1422.17,790.89 57.14,2.38 103.26,47.58 106.8,104.67 3.52,57.07 -36.68,107.6 -93.09,117 -1396.14,232.71 -2123.91,-561.3 -2283.94,-1121.37 -157.53,-551.37 -80.48,-1191.47 400.51,-1672.48 43.6,-43.6 114.25,-43.6 157.85,0 43.61,43.61 43.61,114.27 0,157.86 -412.06,412.08 -483.84,962.73 -343.71,1453.26 89.14,312.02 412.49,753.9 1026.36,927.24 -302.88,-170.1 -497.28,-409.72 -600.99,-676.07 -187.06,-480.29 -68.59,-1026.73 201.94,-1335.94 291.77,-333.43 717.51,-403.53 1034.95,-250.29 159.14,76.85 289.41,209.55 357.08,389.06 23.69,62.84 39.34,130.4 46.18,202.01 53.13,-118.75 83.67,-250.11 87.8,-382.39 8.39,-268.41 -91.95,-527 -316.1,-687.09 -471.31,-336.65 -1161.9,-352.87 -1953.31,222.68 -7.71,5.6 -15.95,9.94 -24.42,13.31 -214.55,335.34 -338.92,733.97 -338.92,1161.61 0,1191.99 966.29,2158.26 2158.26,2158.26 108.17,0 214.46,-8.09 318.33,-23.45 9.42,-5.16 19.74,-9.07 30.78,-11.39 648.93,-136.63 1165.66,-795.81 1318.33,-1550.19 125.05,-617.95 -0.13,-1270.88 -478.42,-1714.19 73.29,266.72 78.14,580.6 18.08,874.91 -97.4,477.23 -375.22,949.9 -874.08,1116.21 -58.49,19.48 -121.74,-12.13 -141.24,-70.62 -19.5,-58.47 12.11,-121.74 70.6,-141.24 394.18,-131.39 637.34,-514.57 726.01,-949.01 89.35,-437.91 12.04,-881 -180.06,-1105.11 -35.06,-40.92 -35.89,-101.02 -1.99,-142.9 33.9,-41.84 92.89,-53.53 140.17,-27.74 873.29,476.34 1104.69,1388.99 939.74,2203.99 -68.65,339.2 -207.52,668.88 -402.05,949.27 415.11,-393.34 674.06,-949.79 674.06,-1566.8 0,-1191.99 -966.27,-2158.26 -2158.26,-2158.26z"/>
  </g>
 </g>
</svg>
