<?xml version="1.0" encoding="UTF-8"?>
<!DOCTYPE svg PUBLIC "-//W3C//DTD SVG 1.1//EN" "http://www.w3.org/Graphics/SVG/1.1/DTD/svg11.dtd">
<!-- Creator: CorelDRAW 2019 (64-Bit) -->
<svg xmlns="http://www.w3.org/2000/svg" xml:space="preserve" width="91.3865mm" height="92.3961mm" version="1.1" shape-rendering="geometricPrecision" text-rendering="geometricPrecision" image-rendering="optimizeQuality" fill-rule="evenodd" clip-rule="evenodd"
viewBox="0 0 9124.42 9225.23"
 xmlns:xlink="http://www.w3.org/1999/xlink">
 <g id="Layer_x0020_1">
  <metadata id="CorelCorpID_0Corel-Layer"/>
  <g id="_1942900848336">
   <g>
    <path fill="#F2F5FF" fill-rule="nonzero" d="M-0 9201.14l612.01 0 222.04 -578.57 933.39 0 218.95 578.57 635.95 0 -967.66 -2396.45 -673.55 0 -981.13 2396.45zm1011.92 -1047.57l293.98 -766.87 287.28 766.87 -581.26 0z"/>
    <path fill="#F2F5FF" fill-rule="nonzero" d="M4060.46 9201.21l547.02 0 0 -2516.36 -553.86 119.9 0 681.14c-136.79,-78.67 -294.08,-119.75 -461.66,-119.75 -526.43,0 -940.23,407.36 -940.23,927.78 0,520.34 406.86,931.3 923.24,931.3 177.75,0 345.32,-54.83 485.49,-157.55l0 133.54zm-864.94 -907.29c0,-260.24 205.16,-458.7 475.2,-458.7 150.36,0 287.17,51.27 382.91,140.42l0 633.25c-99.09,95.92 -229.1,143.81 -382.91,143.81 -266.65,0 -475.2,-198.61 -475.2,-458.77z"/>
    <polygon fill="#F2F5FF" fill-rule="nonzero" points="5043.62,9201.14 6944.27,9201.14 6944.27,8691.02 5631.58,8691.02 5631.58,8239.16 6489.67,8239.16 6489.67,7746.07 5631.58,7746.07 5631.58,7314.8 6930.78,7314.8 6930.78,6804.69 5043.62,6804.69 "/>
    <polygon fill="#F2F5FF" fill-rule="nonzero" points="7107.28,9201.21 7726.08,9201.21 8102.31,8684.22 8481.65,9201.21 9124.42,9201.21 8420.23,8276.82 9086.83,7390.17 8467.97,7390.17 8115.95,7876.23 7760.23,7390.17 7117.43,7390.17 7794.46,8283.77 "/>
   </g>
   <g>
    <polygon fill="#F2F5FF" points="2688.72,4223.51 3863.83,3048.48 2688.8,1873.51 3386.3,1175.98 4562.23,2351.9 5738.24,1175.98 6435.7,1873.51 5260.64,3048.48 6435.7,4223.51 5737.24,4921.96 4562.23,3746.89 3387.2,4922.01 "/>
    <polygon fill="#F2F5FF" points="3465.25,1096.86 4562.14,0 5659.01,1096.86 5070.55,1685.39 4562.14,1176.96 4053.73,1685.39 "/>
    <polygon fill="#F2F5FF" points="3465.25,4999.99 4562.14,6096.89 5659.01,4999.99 5070.55,4411.58 4562.14,4919.93 4053.73,4411.58 "/>
   </g>
  </g>
 </g>
</svg>
