<?xml version="1.0" encoding="UTF-8"?>
<!DOCTYPE svg PUBLIC "-//W3C//DTD SVG 1.1//EN" "http://www.w3.org/Graphics/SVG/1.1/DTD/svg11.dtd">
<!-- Creator: CorelDRAW 2019 (64-Bit) -->
<svg xmlns="http://www.w3.org/2000/svg" xml:space="preserve" width="134.804mm" height="61.064mm" version="1.1" shape-rendering="geometricPrecision" text-rendering="geometricPrecision" image-rendering="optimizeQuality" fill-rule="evenodd" clip-rule="evenodd"
viewBox="0 0 13466.12 6099.95"
 xmlns:xlink="http://www.w3.org/1999/xlink">
 <g id="Layer_x0020_1">
  <metadata id="CorelCorpID_0Corel-Layer"/>
  <g id="_1942554043936">
   <g>
    <path fill="#F2F5FF" fill-rule="nonzero" d="M4337.12 4296.7l612.31 0 222.15 -578.86 933.86 0 219.06 578.86 636.27 0 -968.15 -2397.65 -673.89 0 -981.62 2397.65zm1012.43 -1048.09l294.13 -767.26 287.43 767.26 -581.55 0z"/>
    <path fill="#F2F5FF" fill-rule="nonzero" d="M8399.61 4296.77l547.29 0 0 -2517.62 -554.13 119.96 0 681.48c-136.86,-78.71 -294.23,-119.81 -461.89,-119.81 -526.69,0 -940.7,407.57 -940.7,928.25 0,520.6 407.06,931.76 923.7,931.76 177.84,0 345.49,-54.86 485.74,-157.63l0 133.61zm-865.37 -907.74c0,-260.37 205.26,-458.93 475.44,-458.93 150.43,0 287.32,51.3 383.1,140.49l0 633.57c-99.14,95.97 -229.22,143.88 -383.1,143.88 -266.79,0 -475.44,-198.71 -475.44,-459z"/>
    <polygon fill="#F2F5FF" fill-rule="nonzero" points="9383.26,4296.7 11284.87,4296.7 11284.87,3786.32 9971.52,3786.32 9971.52,3334.24 10830.04,3334.24 10830.04,2840.9 9971.52,2840.9 9971.52,2409.42 11271.38,2409.42 11271.38,1899.05 9383.26,1899.05 "/>
    <polygon fill="#F2F5FF" fill-rule="nonzero" points="11447.96,4296.77 12067.08,4296.77 12443.49,3779.52 12823.03,4296.77 13466.12,4296.77 12761.57,3371.92 13428.5,2484.82 12809.33,2484.82 12457.14,2971.13 12101.24,2484.82 11458.12,2484.82 12135.48,3378.88 "/>
   </g>
   <g>
    <polygon fill="#7298FE" points="-0,4225.63 1175.7,3050 0.08,1874.45 697.93,1176.57 1874.45,2353.08 3051.05,1176.57 3748.86,1874.45 2573.21,3050 3748.86,4225.63 3050.05,4924.42 1874.45,3748.76 698.83,4924.47 "/>
    <polygon fill="#2855CC" points="776.92,1097.41 1874.36,0 2971.78,1097.41 2383.03,1686.24 1874.36,1177.55 1365.7,1686.24 "/>
    <polygon fill="#2855CC" points="776.92,5002.5 1874.36,6099.95 2971.78,5002.5 2383.03,4413.79 1874.36,4922.39 1365.7,4413.79 "/>
   </g>
  </g>
 </g>
</svg>
