<svg xmlns="http://www.w3.org/2000/svg" viewBox="0 0 765.98 765.98"><defs><style>.cls-1{fill:#1b75bc;}.cls-2{fill:#3c3c3b;}</style></defs><title>adex-vector-logo</title><svg x="144" y="0"><g id="Layer_2" data-name="Layer 2"><g id="Layer_1-2" data-name="Layer 1"><polygon class="cls-1" points="470.25 529.98 322.8 382.53 470.25 235.08 382.58 147.4 235.13 294.85 87.67 147.4 0 235.08 147.45 382.53 0 529.98 87.67 617.65 235.13 470.2 382.58 617.65 470.25 529.98"/><polyline class="cls-2" points="183.93 51.2 97.82 137.31 170.36 209.85 235.13 144.3 299.89 209.85 372.44 137.31 286.33 51.2 235.13 0 183.93 51.2"/><polyline class="cls-2" points="183.93 714.78 97.82 628.67 170.36 556.13 235.13 621.67 299.89 556.13 372.44 628.67 286.33 714.78 235.13 765.98 183.93 714.78"/></g></g></svg></svg>
