<svg xmlns="http://www.w3.org/2000/svg" viewBox="0 0 447.54 469.63"><defs><style>.a{fill:#3c3c3b;}</style></defs><title>advertiser-ic</title><path class="a" d="M325.14,93.43,298.22,10.58A15.28,15.28,0,0,0,279,.75h-.06a15,15,0,0,0-7.84,6c-12.53,18.81-31.85,44.38-57.25,67.88C166,118.87,108.29,147.2,108.29,147.2L22.51,175.07A32.68,32.68,0,0,0,1.58,216.14l24.83,76.42a32.68,32.68,0,0,0,26.81,22.2L157.27,455.7A34.32,34.32,0,0,0,195.48,468l52.82-17.16a24.57,24.57,0,0,0,15.77-31c0-.07-.05-.14-.07-.22l-5.55-16.57a29.79,29.79,0,0,0-8.22-12.57l-59.4-53.83a83.84,83.84,0,0,1-23.69-37l-4.72-15.08c21.33-2.29,75.91-7.14,118.87-2.28,31,3.49,63.72,12.55,86.29,19.74a15,15,0,0,0,9.25,0,15.28,15.28,0,0,0,9.84-19.23v0L358.9,197.32A59.23,59.23,0,0,0,373,137.7l-1.41-4.32A59.22,59.22,0,0,0,325.14,93.43ZM154.58,290l3.89,12.39a92,92,0,0,0,6.42,15.35L85.7,343.43,67.19,318.36Zm89.49,107.21-95.73,31.11L91.39,351.14l78.23-25.42a92.4,92.4,0,0,0,15.11,17.67ZM378,285.57a6.2,6.2,0,0,1-4,7.8,5.93,5.93,0,0,1-3.68,0c-22.57-7.19-56.17-16.51-88-20.11-45.4-5.13-102.4.21-122.7,2.47l-40.27-124c17-9.05,61.75-34.4,100.67-70.41C246.58,56.75,266.56,30,278.65,11.82a6,6,0,0,1,3.09-2.41,6.23,6.23,0,0,1,7.83,4L378,285.57Z"/><path class="a" d="M437.23,107.27,407,117.11a6.82,6.82,0,0,0,4.21,13h0l30.27-9.84a6.82,6.82,0,1,0-4.21-13Z"/><path class="a" d="M377.53,69.45,392,41.09a6.82,6.82,0,0,0-12.15-6.19L365.37,63.26a6.82,6.82,0,1,0,12.16,6.19Z"/><path class="a" d="M415.38,185.93a6.82,6.82,0,1,0-6.2,12.15h0l28.37,14.45a6.82,6.82,0,1,0,6.34-12.07l-.15-.08Z"/></svg>