<svg xmlns="http://www.w3.org/2000/svg" viewBox="0 0 153.32 163.57"><defs><style>.a{fill:#1b76bc;}</style></defs><title>fast-ic</title><path class="a" d="M141,37.06c.73.68,1.26.78,2,0q4.89-5,9.85-9.86c.63-.63.58-1.1,0-1.7q-5-5-10-10c-.68-.69-1.17-.65-1.83,0q-4.83,4.91-9.73,9.74c-.71.7-.82,1.28,0,2s1.33,1.4,2.05,2,.64,1.17,0,1.8a46.44,46.44,0,0,0-3.36,3.37c-1,1.12-1.68,1.21-2.89.16A72.89,72.89,0,0,0,88.7,17c-1.27-.18-1.33-1-1.35-1.93s.53-1.39,1.49-1.36,1.93,0,2.89,0a7,7,0,0,0,6.42-6.9C98.11,3.32,95.24.1,91.8.07Q79-.06,66.13.08a6.74,6.74,0,0,0-6.32,6.78,6.91,6.91,0,0,0,6.26,6.86c.91.06,1.82,0,2.72,0s1.83-.12,1.9,1.29-.62,1.77-1.78,1.94c-2.07.31-4.14.64-6.19,1.07s-3.13,1.82-2.82,3.38c.35,1.78,1.9,2.58,4.12,2.12a59.18,59.18,0,0,1,9.07-1.31c3-.15,3-.11,3,2.84,0,.62,0,1.25,0,1.87.09,1.89,1.09,3,2.72,3.09a2.88,2.88,0,0,0,3-2.86,30.12,30.12,0,0,0,.09-3.56c0-1,.45-1.49,1.45-1.41,1.35.11,2.71.19,4.06.37a65.55,65.55,0,0,1,21,6.39c1.11.56,1.42,1.14.7,2.22a29.47,29.47,0,0,0-1.71,2.93,2.87,2.87,0,0,0,.87,3.9,2.77,2.77,0,0,0,4-1A22.62,22.62,0,0,0,114,34.08c.64-1.36,1.36-1.31,2.49-.52A82.67,82.67,0,0,1,124.57,40,70,70,0,0,1,135,52.27c.66,1,.39,1.51-.53,2s-2,1.1-2.95,1.69c-1.61,1-2.06,2.42-1.29,3.88s2.41,1.9,4.11,1c1-.53,2-1.08,2.94-1.7s1.49-.4,2,.59a64.69,64.69,0,0,1,6.9,25.91c.05,1-.23,1.46-1.3,1.41a35.89,35.89,0,0,0-3.74,0,2.76,2.76,0,1,0,0,5.52,20.84,20.84,0,0,0,3.06,0c1.49-.14,2.23.25,2,1.94-.24,1.44-.22,2.93-.42,4.39a65.7,65.7,0,0,1-6.47,21c-.51,1-1.05,1.18-2,.58a34,34,0,0,0-3.1-1.78,2.86,2.86,0,0,0-3.89.92,2.82,2.82,0,0,0,1.11,3.95c1,.65,2,1.23,3.08,1.79s1.18,1,.52,2a69.68,69.68,0,0,1-19,19c-.91.61-1.4.37-1.87-.51-.59-1.09-1.21-2.18-1.9-3.22a2.77,2.77,0,0,0-3.81-1.11,2.85,2.85,0,0,0-1,4c.55,1.06,1.15,2.09,1.77,3.1s.36,1.5-.62,2a66.95,66.95,0,0,1-24.73,6.85c-1.48.12-2.06-.43-2-1.92a10.59,10.59,0,0,0-.2-3.72,2.8,2.8,0,0,0-5.53.37,13,13,0,0,0,0,1.53c0,4.13,0,4.13-4.21,3.64-.22,0-.44-.07-.67-.1-2.62-.43-5.25-.87-7.88-1.27a2.81,2.81,0,1,0-1.3,5.46,14.12,14.12,0,0,0,2.14.49c2.73.46,5.47.88,8.2,1.32a62.54,62.54,0,0,0,12.24,0l3.84-.6c19.07-2.75,34.85-11.53,47-26.44,12.71-15.6,18.12-33.61,16.21-53.69a72.22,72.22,0,0,0-16.73-39.81c-2.4-2.92-2.46-2.87.15-5.48C138,34.32,138.05,34.3,141,37.06ZM142,21.45l4.74,4.74L142,30.94l-4.74-4.75ZM83.79,8.18c-2.19,0-2.23.05-2.24,2.33,0,1.47,0,3,0,4.42,0,1-.4,1.37-1.41,1.43-3.67.2-3.67.23-3.67-3.45,0-4.73,0-4.73-4.76-4.73-1.42,0-2.83,0-4.25,0-.91,0-1.79-.22-1.74-1.36s.89-1.21,1.73-1.21H90.2c.74,0,1.51,0,2,.7.57.91-.15,1.82-1.59,1.86C88.32,8.22,86.05,8.17,83.79,8.18Z"/><path class="a" d="M80.41,103.49a9.76,9.76,0,0,1-6-17.41q17.42-12.72,34.92-25.32c1.66-1.19,3-1.18,4.15-.09s1.17,2.56-.08,4.28Q101.22,81.88,89,98.8C86.87,101.71,84.17,103.58,80.41,103.49ZM98.33,76.17l-.23-.29C91.4,80.77,84.66,85.6,78,90.57a3.92,3.92,0,0,0-.33,6.09c1.92,1.83,4.61,1.6,6.33-.74C88.83,89.37,93.56,82.76,98.33,76.17Z"/><path class="a" d="M28.72,100.78H4.42c-.51,0-1,0-1.53,0a2.77,2.77,0,1,1-.08-5.53c.45,0,.91,0,1.36,0H53.62c2.33,0,3.69,1.08,3.66,2.83s-1.37,2.72-3.58,2.74-4.31,0-6.46,0Z"/><path class="a" d="M34.08,81.74H15.22c-.51,0-1,0-1.53,0a2.77,2.77,0,1,1,.08-5.53c.28,0,.57,0,.85,0q19.55,0,39.08,0c.28,0,.57,0,.85,0a2.77,2.77,0,1,1-.08,5.53c-.51,0-1,0-1.53,0Z"/><path class="a" d="M36.8,119.82h-17a3.31,3.31,0,0,1-2.89-1.09,2.73,2.73,0,0,1,1.46-4.34,5.94,5.94,0,0,1,1.52-.13H54.38a2.87,2.87,0,0,1,2.9,2.73,2.83,2.83,0,0,1-3,2.81c-3.4,0-6.8,0-10.2,0Z"/><path class="a" d="M40.88,62.7H28.14c-2.39,0-3.69-1-3.66-2.82s1.29-2.74,3.57-2.74H53.87c2.07,0,3.38,1.09,3.41,2.73S56,62.69,53.79,62.7Z"/><path class="a" d="M44.86,138.85c-2.94,0-5.88,0-8.83,0-2.13,0-3.37-1-3.39-2.74s1.22-2.8,3.32-2.81q9,0,18,0c2,0,3.35,1.16,3.32,2.82s-1.35,2.72-3.41,2.73C50.87,138.87,47.87,138.85,44.86,138.85Z"/><path class="a" d="M47.59,43.66c-2,0-4.07,0-6.11,0s-3.37-1-3.4-2.73,1.21-2.81,3.31-2.82q6.36,0,12.74,0a2.87,2.87,0,0,1,3.15,2.81c0,1.6-1.31,2.71-3.23,2.74C51.89,43.68,49.74,43.66,47.59,43.66Z"/></svg>