<svg xmlns="http://www.w3.org/2000/svg" viewBox="0 0 142.4 165.7"><defs><style>.a{fill:#1b76bc;}</style></defs><title>mute-ic</title><path class="a" d="M82,58.46,95.5,66.52a2.68,2.68,0,0,0,1.38.38,2.73,2.73,0,0,0,2.32-1.31,2.69,2.69,0,0,0-.94-3.69L84.78,53.83A2.7,2.7,0,0,0,82,58.46Z"/><path class="a" d="M90.1,98.12a12.6,12.6,0,1,0-12.6-12.6A12.61,12.61,0,0,0,90.1,98.12Zm-7.21-12.6a7.21,7.21,0,1,1,7.21,7.21A7.21,7.21,0,0,1,82.89,85.52Z"/><path class="a" d="M53.71,98.12a12.6,12.6,0,1,0-12.6-12.6A12.61,12.61,0,0,0,53.71,98.12ZM46.5,85.52a7.21,7.21,0,1,1,7.21,7.21A7.21,7.21,0,0,1,46.5,85.52Z"/><path class="a" d="M125.33,70.4h-.51V52.59c1.14-2.91,5.8-16.31-.16-29.13a37.69,37.69,0,0,0-2.2-4C115.07,6.6,91.31-1.31,64.7.18A73.77,73.77,0,0,0,45.53,3.67a36.27,36.27,0,0,0-8.79,4c-.33.2-.63.38-.91.53a1.92,1.92,0,0,0-.26.17l-2,1.39a13,13,0,0,0-5.06,9.81,20,20,0,0,0,.32,3.55,31.25,31.25,0,0,0-11.4,24V70.4h-.41A17.09,17.09,0,0,0,0,87.47v7.47A17.09,17.09,0,0,0,17.07,112h.41v0a53.67,53.67,0,0,0,107.34,0l.51,0A17.09,17.09,0,0,0,142.4,94.94V87.47A17.09,17.09,0,0,0,125.33,70.4ZM28.56,43.59a22.2,22.2,0,0,0,2.28,9A19.68,19.68,0,0,0,24.5,62.9C23.24,68,22.93,79.42,22.87,87.08v-40a25.62,25.62,0,0,1,7.86-18.44,18.74,18.74,0,0,0,2.85,4.09C31.52,35.23,28.55,39.52,28.56,43.59Zm-.3,50c0-.22-.22-22.58,1.47-29.37a13.47,13.47,0,0,1,5.85-8.38,2.71,2.71,0,0,0,1.33-1.67,2.67,2.67,0,0,0-.3-2.12C36.5,51.85,34,47.58,34,43.58c0-2.48,2.53-5.87,3.8-7.4q.75.45,1.5.81A35.3,35.3,0,0,0,54.6,40.06H95.13a36.37,36.37,0,0,1,7.3.83c3.49,1,5.55,2.31,5.91,2.76a21.44,21.44,0,0,1-2.67,8.42,2.69,2.69,0,0,0,1,3.75,13.55,13.55,0,0,1,5.85,8.39C114.26,71,114,93.35,114,93.58a2.71,2.71,0,0,0,.77,1.92,2.74,2.74,0,0,0,1.92.8h2.7V112a48.28,48.28,0,0,1-96.56,0V96.3h2.7a2.71,2.71,0,0,0,2.69-2.73Zm83.17-41a26.12,26.12,0,0,0,2.13-7,18.62,18.62,0,0,1,5.87,7.09V87c-.07-7.67-.39-19.07-1.64-24.05A19.61,19.61,0,0,0,111.43,52.59Zm-16.38-18H54.6a30.13,30.13,0,0,1-12.92-2.49,13.21,13.21,0,0,1-3-1.94A35.62,35.62,0,0,0,49.6,32.59c6.7.51,14.23,0,21.59-.41,9.74-.61,19.82-1.24,28.31.38a45.85,45.85,0,0,1,22.13,11.35c-.1.54-.21,1.09-.33,1.63C113,35.15,98.35,34.6,95.4,34.6Zm-8.43-8.47c-5.1,0-10.37.32-15.46.64l-.3,0c-7.45.46-14.49.9-20.85.42-10.93-.83-14.79-5.31-15.87-7,2.2,2.26,6.18,4.61,13.37,5.55,7.78,1,16.36-.14,24.66-1.27l-.1-.74h0l.2.73c8.13-1.11,15.81-2.15,22.49-1.24C107.26,25,116.67,28.6,122,33.82a30.38,30.38,0,0,1,.2,3.47,50.86,50.86,0,0,0-21.7-10A74.1,74.1,0,0,0,86.62,26.14Zm31.17-4,0,.09a31.55,31.55,0,0,1,1.75,3.12c-6.14-3.58-14.23-6.08-24.11-7.42a46.34,46.34,0,0,0-6.25-.39,134,134,0,0,0-17.64,1.62h-.12c-7.95,1.09-16.18,2.21-23.26,1.28-9.16-1.21-11.13-4.69-11.54-6.21L37,14l1.59-1.14,1-.6A31.71,31.71,0,0,1,47,8.85l.17,0A68.63,68.63,0,0,1,65,5.56C89.26,4.2,111.47,11.16,117.79,22.12ZM137,87.47v7.47a11.69,11.69,0,0,1-11.68,11.68h-.41V75.79h.41A11.69,11.69,0,0,1,137,87.47ZM17.48,75.79v30.83h-.41A11.69,11.69,0,0,1,5.39,94.94V87.47A11.69,11.69,0,0,1,17.07,75.79Z"/><path class="a" d="M53.71,88.41a2.7,2.7,0,0,0,2.69-2.7v-.19a2.7,2.7,0,1,0-5.39,0v.19A2.7,2.7,0,0,0,53.71,88.41Z"/><path class="a" d="M90.1,88.41a2.69,2.69,0,0,0,2.69-2.7v-.19a2.69,2.69,0,1,0-5.38,0v.19A2.69,2.69,0,0,0,90.1,88.41Z"/><path class="a" d="M43.8,66.9a2.65,2.65,0,0,0,1.38-.38l13.49-8.06A2.69,2.69,0,0,0,59.9,56.8a2.66,2.66,0,0,0-.3-2,2.69,2.69,0,0,0-1.66-1.23,2.63,2.63,0,0,0-2,.3L42.42,61.9a2.69,2.69,0,0,0-.93,3.69A2.71,2.71,0,0,0,43.8,66.9Z"/><path class="a" d="M55.56,115.76a2.69,2.69,0,0,0-.82,4.91l12,7.48-12,7.47a2.7,2.7,0,1,0,2.86,4.57l14.18-8.86L86,140.19a2.7,2.7,0,0,0,3.72-.86,2.7,2.7,0,0,0-.86-3.71l-12-7.47,12-7.48a2.69,2.69,0,0,0-.82-4.91,2.71,2.71,0,0,0-2,.34L71.78,125,57.6,116.1A2.71,2.71,0,0,0,55.56,115.76Z"/></svg>