<svg xmlns="http://www.w3.org/2000/svg" viewBox="0 0 564.57 533.85"><defs><style>.a{fill:#3c3c3b;}</style></defs><title>publisher-ic</title><circle class="a" cx="53.22" cy="139.35" r="9.26"/><circle class="a" cx="83.3" cy="139.35" r="9.26"/><circle class="a" cx="111.06" cy="140.51" r="9.26"/><path class="a" d="M213.08,236.51c-17.24,1.9-34.29,5.46-51.52,7.57-7.05.87-10.92,4.1-14,10.14-6.79,13.22-14.18,26.13-21.27,39.2-1.68,3.1-3.12,6.33-5.4,11,14.66.79,27.49,1.75,40.33,2.12,27.24.77,28.5-.44,20.27,27.36-1.94,6.59-1.6,11.91,3.18,17.05A149.57,149.57,0,0,0,235,386.75a17.42,17.42,0,0,0,7,1.61,14.41,14.41,0,0,0,9.38-3.7A81.08,81.08,0,0,1,266,375a14.36,14.36,0,0,1,6.16-1.87c2.81,0,5.23,1.66,6.92,6.3,6.27,17.1,13.3,33.91,20.29,51.48,1.87-.61,3-.63,3.51-1.2,13.24-14.32,26.6-28.54,39.42-43.24,2-2.25,2.32-6.9,1.78-10.16-3-18-6-36.12-10.09-53.92-1.83-7.95,0-13.22,5.14-19.12,24.93-28.83,49.18-58.24,74.18-87,42.32-48.66,62.33-105.41,62.19-169.48,0-14.95-1.64-29.89-2.64-46.79-17.18,4.9-32.31,8.3-46.8,13.49C376,31.44,332.45,59.15,303,104.56,277.33,144,253.43,184.66,229.17,225,225.21,231.62,221.26,235.61,213.08,236.51ZM365,111.25a32.25,32.25,0,0,1,5.28-.44,33.15,33.15,0,0,1,32.36,27.11c3.17,18-8.95,35.43-26.75,38.41a31.63,31.63,0,0,1-5.23.43A33,33,0,0,1,365,111.25Z"/><path class="a" d="M160.49,353.9c-30.24,33.61-29.86,73.47-23.53,115.4,45.54-2.55,90.14-29.07,101.9-61.59-4,.42-8.19,1.1-11,3.45-19.67,16.26-42.36,24.57-67.26,27.47-7-18.8-5.08-51.74,3.34-73.53C165.16,361.86,161.67,353.93,160.49,353.9Z"/><path class="a" d="M527.51,87.22H486.74q-1,7-2.27,13.88h43a23.19,23.19,0,0,1,23.17,23.17v53.26H457.26q-3.87,7-8.2,13.89H550.68V496.8A23.19,23.19,0,0,1,527.51,520H37.06A23.2,23.2,0,0,1,13.88,496.8V191.41H233.14q4.14-6.91,8.33-13.88H13.88V124.27A23.2,23.2,0,0,1,37.06,101.1H288.71c.88-1.36,1.73-2.74,2.62-4.1,2.16-3.34,4.44-6.59,6.77-9.78h-261A37.05,37.05,0,0,0,0,124.27V496.79a37.05,37.05,0,0,0,37.05,37.06H527.51a37.07,37.07,0,0,0,37.06-37.05h0V124.27A37.06,37.06,0,0,0,527.51,87.22Z"/></svg>