<svg xmlns="http://www.w3.org/2000/svg" viewBox="0 0 135.77 163.57"><defs><style>.a{fill:#1b76bc;}</style></defs><title>report-ic</title><path class="a" d="M.06,81.79q0-36,0-71.91A10,10,0,0,1,2.32,3,8.11,8.11,0,0,1,8.73,0c5.38,0,10.75,0,16.12,0q39,0,77.93,0a8.74,8.74,0,0,1,8.1,4.48A7.3,7.3,0,0,1,112,8.33c0,5.73,0,11.46,0,17.19,0,2-.25,2.19-2.15,2.29-3.53.17-3.76,0-3.77-3.67v-14c0-.6,0-1.21,0-1.81-.14-1.48-.62-2-2-2.16a18.63,18.63,0,0,0-2-.05H10.36C6.26,6.1,6,6.38,6,10.6V132.71c0,3,0,3,2.89,3h94.93c2.08,0,2.22-.16,2.22-2.37q0-11,0-21.94c0-2.27,0-2.24-2.21-2.79-11.24-2.79-18.1-10.09-21-21.45a24.48,24.48,0,0,1-.57-4,1.38,1.38,0,0,1,1.56-1.69l.44,0c3.71-.18,3.7-.16,4.22,3.62a19.74,19.74,0,0,0,11,15.64c8.2,4.17,16.83,3.21,23.41-3,6.11-5.78,8.55-13.08,6.34-21.35s-7.66-13.79-16.06-15.68a20.59,20.59,0,0,0-9.2.27c-2.17.51-2.26.43-3.07-1.69-1.28-3.35-1.16-3.57,2.25-4.33a27.29,27.29,0,0,1,28.57,12.14,28.58,28.58,0,0,1-1.38,31.27,26.33,26.33,0,0,1-15.11,10c-3.62.92-3.3.1-3.3,4.41,0,13.94-.07,27.89,0,41.83a9.08,9.08,0,0,1-6.92,8.77,11.5,11.5,0,0,1-2.41.22c-31.06,0-62.11,0-93.16.06A9.62,9.62,0,0,1,0,153.7C.13,129.73.06,105.76.06,81.79Zm56.05,60H8.66c-2.64,0-2.66,0-2.67,2.82s0,5.43,0,8.14c0,4.3.36,4.67,4.5,4.67h92c3-.05,3.5-.57,3.52-3.55s0-5.72,0-8.59c0-3.49,0-3.49-3.37-3.49Z"/><path class="a" d="M50.67,60.38H15.78c-2.14-.07-2.4-.34-2.47-2.5v-.45c0-2.93.09-3,2.9-3.12,2.29-.06,2.38-.12,2.39-2.44,0-7,0-14,0-21,0-.68,0-1.35,0-2a1.47,1.47,0,0,1,1.67-1.63c.51,0,1,0,1.55,0h9.71c3.56,0,3.56,0,3.57,3.54V51.07c0,.6,0,1.2,0,1.81,0,.91.42,1.41,1.33,1.41h4.64c.93,0,1.29-.58,1.31-1.46,0-.6,0-1.2,0-1.81V24.1c0-.75,0-1.51,0-2.26,0-2.67.16-2.8,2.77-2.81,3.75,0,7.51,0,11.26,0,2.35,0,2.49.16,2.49,2.59q0,14.7,0,29.4c0,3.49-.1,3.29,3.3,3.29.81,0,1.62,0,2.43,0,1.13,0,1.59-.56,1.58-1.67,0-.67,0-1.35,0-2q0-16.85,0-33.7c0-3.28,0-3.3,3.17-3.3h10.6c2.66,0,2.75.1,2.75,2.78q0,16.86,0,33.7v1.36c0,2.8,0,2.8,2.81,2.87,2.35.06,2.45.17,2.49,2.61.05,3.39,0,3.46-3.24,3.46ZM76.89,37c0-5,0-10.08,0-15.12,0-2-.23-2.2-2.14-2.24-.36,0-.73,0-1.1,0a1.25,1.25,0,0,0-1.39,1.37c0,.37,0,.75,0,1.13V51.76q0,.68,0,1.35c0,.39.12.82.48,1a5.17,5.17,0,0,0,3.45,0c1-.34.69-1.39.69-2.18C76.9,47,76.89,42,76.89,37ZM48.38,39.79v1.35c0,3.68,0,7.37,0,11,0,.66-.19,1.53.5,1.85a4.65,4.65,0,0,0,3.44.07c1-.32.7-1.38.7-2.16,0-4.51,0-9,0-13.54q0-5.52,0-11c0-.66.17-1.49-.46-1.88a4.22,4.22,0,0,0-3.41-.22c-1,.27-.77,1.33-.78,2.12C48.37,31.52,48.39,35.65,48.38,39.79ZM29.2,44.05h0q0-4.39,0-8.79c0-.65.12-1.49-.64-1.77a4.43,4.43,0,0,0-3.43,0c-.89.42-.57,1.46-.57,2.25,0,5.41,0,10.81,0,16.22,0,.38,0,.75,0,1.13a1.09,1.09,0,0,0,1.1,1.16c.36,0,.73,0,1.09,0,2.25,0,2.41-.12,2.43-2.36C29.22,49.31,29.2,46.68,29.2,44.05Z"/><path class="a" d="M41.38,67.88H66.09c.58,0,1.17,0,1.76,0,1.4.11,1.67.32,1.7,1.78.1,4.43.24,4.28-3.73,4.28h-49c-3.47,0-3.65-.19-3.54-3.66.07-2.2.24-2.4,2.49-2.4Q28.6,67.86,41.38,67.88Z"/><path class="a" d="M29.46,108.59c4.63,0,9.26,0,13.89,0,2.2,0,2.33.19,2.38,2.47.08,3.52,0,3.59-3.32,3.59q-12.88,0-25.78,0c-.44,0-.89,0-1.33,0-1.58-.12-1.86-.42-2-2.06-.28-3.73-.05-4,3.58-4Z"/><path class="a" d="M29.59,128.23c-4.41,0-8.82,0-13.23,0-2.89,0-3.08-.23-3-3.25,0-2.65.15-2.81,2.75-2.82H43c.29,0,.59,0,.88,0,1.59.11,1.85.28,1.88,1.84.09,4.39.22,4.23-3.78,4.23Z"/><path class="a" d="M29.46,95c4.63,0,9.26,0,13.89,0,2.2,0,2.33.19,2.38,2.47.08,3.52,0,3.59-3.32,3.59H16.63c-.45,0-.89,0-1.33,0-1.58-.12-1.86-.42-2-2.06-.28-3.73-.05-4,3.58-4Z"/><path class="a" d="M29.63,81.45c4.56,0,9.11,0,13.67,0,2.24,0,2.38.18,2.43,2.42.09,3.6.06,3.64-3.49,3.64q-12.78,0-25.56,0c-3.24,0-3.42-.19-3.37-3.38,0-2.5.18-2.68,2.66-2.69C20.52,81.44,25.08,81.45,29.63,81.45Z"/><path class="a" d="M112,73.06c0,1.89,0,3.77,0,5.65a3.78,3.78,0,0,0,1.23,3c2.37,2.36,4.69,4.77,7,7.18,1.64,1.7,1.66,1.82.1,3.42-2.8,2.88-2.31,2.77-5,0s-5.17-5.34-7.81-8A4.42,4.42,0,0,1,106,81c0-4.44,0-8.88,0-13.32,0-2.24.24-2.42,2.43-2.46,3.49-.08,3.49-.08,3.49,3.6C112,70.2,112,71.63,112,73.06Z"/><path class="a" d="M124,39.09a2.19,2.19,0,0,1-.79,1.32c-3,3.42-2.31,3.14-5.5.78-4.68-3.45-12.6-3.69-17.83.29-2.4,1.84-2.46,1.76-4.56-.48-1.87-2-1.86-2.14.24-3.76a22.35,22.35,0,0,1,26.24-.54,19.08,19.08,0,0,1,1.7,1.42A1.33,1.33,0,0,1,124,39.09Z"/><path class="a" d="M88,128.23c-2.86,0-5.73,0-8.59,0-2.15,0-2.42-.33-2.5-2.45-.13-3.44,0-3.61,3.3-3.61,5.36,0,10.72,0,16.08,0,2.24,0,2.39.18,2.44,2.4.09,3.62.06,3.66-3.46,3.66H88Z"/><path class="a" d="M61.27,95c2.12,0,4.25,0,6.38,0,1.65,0,1.83.29,1.92,2,.22,3.94.13,4-3.75,4-3.45,0-6.9,0-10.35,0-2.1,0-2.35-.34-2.42-2.53v-.23c0-3.16.07-3.29,3.15-3.3h5.07Z"/><path class="a" d="M61.49,87.51c-2.13,0-4.26,0-6.38,0-1.62,0-1.91-.39-2-2a1.62,1.62,0,0,1,0-.22c-.12-4.53.43-3.81,3.51-3.83,3.6,0,7.19,0,10.79,0,2,0,2.14.24,2.22,2.18.15,3.82.1,3.88-3.69,3.89h-4.4Z"/><path class="a" d="M61.46,128.22c-2.13,0-4.26.05-6.39,0-1.59,0-1.88-.4-2-2,0-.15,0-.3,0-.45-.11-3.42,0-3.57,3.33-3.57,3.6,0,7.19,0,10.79,0,2.22,0,2.36.19,2.41,2.44.08,3.58,0,3.62-3.5,3.63H61.46Z"/><path class="a" d="M85.1,108.6c2.13,0,4.26,0,6.39,0,1.65,0,1.83.28,1.93,2,.22,3.95.13,4-3.74,4-3.45,0-6.9,0-10.35,0-2.1,0-2.36-.34-2.43-2.52v-.23c-.06-3.16.08-3.3,3.14-3.31H85.1Z"/><path class="a" d="M61.49,114.65c-2.13,0-4.26,0-6.38,0-1.62,0-1.91-.39-2-2a1.62,1.62,0,0,1,0-.22c-.12-4.53.43-3.81,3.51-3.82,3.6,0,7.19,0,10.79,0,2,0,2.14.24,2.22,2.18.15,3.82.1,3.88-3.69,3.89h-4.4Z"/><path class="a" d="M109.11,43.45A9.87,9.87,0,0,1,115.55,46c1.21,1.05,1.16,1.62-.11,2.69-.51.43-1.07.8-1.58,1.23a2,2,0,0,1-2.76.22,3.39,3.39,0,0,0-4.14.06,1.7,1.7,0,0,1-2.38-.05c-.58-.46-1.19-.88-1.77-1.35-1.43-1.19-1.45-1.73,0-3A9.24,9.24,0,0,1,109.11,43.45Z"/><path class="a" d="M97.29,63.59a2.79,2.79,0,0,1-.44.71c-.91.87-1.85,1.71-2.8,2.54a.93.93,0,0,1-1,.27,10.21,10.21,0,0,1-3.57-3.25c-.29-.41.06-.87.36-1.2a19.81,19.81,0,0,1,3.46-3.14c.63-.42,1.26-.53,1.74.16.73,1,1.39,2.12,2.07,3.2A2.67,2.67,0,0,1,97.29,63.59Z"/><path class="a" d="M87.43,77l-.22,0c-1.35-.43-3.4,0-3.88-1.5-.57-1.8.7-3.57,1.5-5.24a.94.94,0,0,1,1.34-.39c1.3.66,3.07.9,3.7,2.23s-.72,2.77-1,4.21C88.69,76.89,88.08,77.08,87.43,77Z"/><path class="a" d="M56.33,146.61h3.74c1,0,1.42.47,1.55,1.49.51,4.07.12,4.56-3.89,4.56-1.75,0-3.51,0-5.27,0s-1.91-.39-2-2a1.62,1.62,0,0,1,0-.22c-.12-4.53.43-3.79,3.5-3.83h2.42Z"/></svg>