<?xml version="1.0" encoding="UTF-8"?>
<!DOCTYPE svg PUBLIC "-//W3C//DTD SVG 1.1//EN" "http://www.w3.org/Graphics/SVG/1.1/DTD/svg11.dtd">
<!-- Creator: CorelDRAW 2019 (64-Bit) -->
<svg xmlns="http://www.w3.org/2000/svg" xml:space="preserve" width="91.3865mm" height="92.3961mm" version="1.1" shape-rendering="geometricPrecision" text-rendering="geometricPrecision" image-rendering="optimizeQuality" fill-rule="evenodd" clip-rule="evenodd"
viewBox="0 0 9124.4 9225.2"
 xmlns:xlink="http://www.w3.org/1999/xlink">
 <g id="Layer_x0020_1">
  <metadata id="CorelCorpID_0Corel-Layer"/>
  <g id="_1942077758496">
   <g>
    <path fill="#072475" fill-rule="nonzero" d="M-0 9201.12l612 0 222.04 -578.57 933.39 0 218.95 578.57 635.95 0 -967.66 -2396.45 -673.55 0 -981.13 2396.45zm1011.92 -1047.56l293.98 -766.87 287.28 766.87 -581.26 0z"/>
    <path fill="#072475" fill-rule="nonzero" d="M4060.45 9201.19l547.02 0 0 -2516.35 -553.86 119.9 0 681.14c-136.79,-78.67 -294.08,-119.75 -461.66,-119.75 -526.43,0 -940.23,407.36 -940.23,927.78 0,520.34 406.85,931.3 923.24,931.3 177.75,0 345.32,-54.83 485.49,-157.55l0 133.54zm-864.94 -907.28c0,-260.24 205.16,-458.7 475.2,-458.7 150.36,0 287.17,51.27 382.91,140.42l0 633.25c-99.09,95.92 -229.1,143.81 -382.91,143.81 -266.65,0 -475.2,-198.61 -475.2,-458.77z"/>
    <polygon fill="#072475" fill-rule="nonzero" points="5043.6,9201.12 6944.26,9201.12 6944.26,8691 5631.57,8691 5631.57,8239.14 6489.66,8239.14 6489.66,7746.05 5631.57,7746.05 5631.57,7314.79 6930.77,7314.79 6930.77,6804.67 5043.6,6804.67 "/>
    <polygon fill="#072475" fill-rule="nonzero" points="7107.26,9201.19 7726.07,9201.19 8102.29,8684.2 8481.64,9201.19 9124.4,9201.19 8420.21,8276.81 9086.81,7390.15 8467.95,7390.15 8115.94,7876.21 7760.21,7390.15 7117.42,7390.15 7794.44,8283.75 "/>
   </g>
   <g>
    <polygon fill="#7298FE" points="2688.71,4223.5 3863.82,3048.47 2688.79,1873.5 3386.29,1175.97 4562.22,2351.9 5738.23,1175.97 6435.69,1873.5 5260.63,3048.47 6435.69,4223.5 5737.23,4921.94 4562.22,3746.88 3387.19,4921.99 "/>
    <polygon fill="#2855CC" points="3465.24,1096.86 4562.13,0 5658.99,1096.86 5070.54,1685.39 4562.13,1176.96 4053.72,1685.39 "/>
    <polygon fill="#2855CC" points="3465.24,4999.98 4562.13,6096.88 5658.99,4999.98 5070.54,4411.57 4562.13,4919.92 4053.72,4411.57 "/>
   </g>
  </g>
 </g>
</svg>
