<svg xmlns="http://www.w3.org/2000/svg" viewBox="0 0 2000 765.98"><defs><style>.a{fill:#1b75bc;}.b{fill:#3c3c3b;}</style></defs><polygon class="a" points="470.25 529.98 322.8 382.53 470.25 235.08 382.58 147.4 235.13 294.85 87.67 147.4 0 235.08 147.45 382.53 0 529.98 87.67 617.65 235.13 470.2 382.58 617.65 470.25 529.98"/><polyline class="b" points="183.93 51.2 97.82 137.31 170.36 209.85 235.13 144.3 299.89 209.85 372.44 137.31 286.33 51.2 235.13 0 183.93 51.2"/><polyline class="b" points="183.93 714.78 97.82 628.67 170.36 556.13 235.13 621.67 299.89 556.13 372.44 628.67 286.33 714.78 235.13 765.98 183.93 714.78"/><path class="b" d="M741,152.91,553.82,622.69h36l64.92-165.13H843.83l64.62,165.13H945L761.7,152.91Zm92,275.2H666.51l65.26-168a515.86,515.86,0,0,0,18.77-55.67q11.13,35.19,19.1,55Zm410.63-178.23q0,38.7,1.93,79h-1.93q-21.64-33.29-49-47.05t-64.95-13.76q-71.61,0-109.17,47.68T982.91,453.71q0,85.76,37.89,130.58t109.51,44.81q73.83,0,113.32-59.52h2.56l7.94,53.11h20.7V124.75h-31.2Zm0,203.83q0,78.7-27.37,113t-86,34.25q-114.3,0-114.27-147.84,0-76.17,28.48-116.16t85.15-40q60.16,0,87.08,35.35t26.88,116Zm155.35,169h254.36V592.6H1431.47V392h209.45V361.88H1431.47v-177h221.87V154.82H1399Zm473.68-178.9,118.73-169h-34.68L1854.51,421.4,1751.39,274.83H1715.1l120.64,169-125.42,178.9H1745l109.5-155.22,108.88,155.22H2000Z"/></svg>