<svg xmlns="http://www.w3.org/2000/svg" viewBox="0 0 838.32 1123.57"><defs><style>.a{fill:#3c3c3b;}.b{fill:#1b75bc;}</style></defs><path class="a" d="M108.51,847.53,0,1119.85H20.86l37.63-95.72H168.11l37.46,95.72h21.21L120.5,847.53Zm53.32,159.53H65.33l37.82-97.39A297.76,297.76,0,0,0,114,877.4q6.45,20.4,11.07,31.91Zm238-103.32q0,22.44,1.11,45.82h-1.11q-12.56-19.29-28.41-27.27t-37.65-8q-41.52,0-63.29,27.64t-21.79,79.95q0,49.71,22,75.69t63.48,26q42.79,0,65.69-34.5h1.48l4.61,30.78h12V831.21H399.87Zm0,118.16q0,45.63-15.87,65.48t-49.82,19.85q-66.26,0-66.24-85.7,0-44.14,16.51-67.34T333.81,931q34.88,0,50.48,20.49t15.58,67.24Zm90.05,97.95H637.37v-17.44H508.76V986.1H630.17V968.67H508.76V866.08H637.37V848.64H489.92Zm274.58-103.7,68.83-97.95H813.22l-59.24,85-59.78-85h-21l69.93,97.95-72.7,103.7h20.11l63.47-90,63.12,90h21.22Z"/><polygon class="b" points="651.04 529.98 503.59 382.53 651.04 235.08 563.37 147.4 415.92 294.85 268.46 147.4 180.79 235.08 328.24 382.53 180.79 529.98 268.46 617.65 415.92 470.2 563.37 617.65 651.04 529.98"/><polyline class="a" points="364.72 51.2 278.61 137.31 351.15 209.85 415.92 144.3 480.69 209.85 553.23 137.31 467.12 51.2 415.92 0 364.72 51.2"/><polyline class="a" points="364.72 714.78 278.61 628.67 351.15 556.13 415.92 621.67 480.69 556.13 553.23 628.67 467.12 714.78 415.92 765.98 364.72 714.78"/></svg>